<?xml version="1.0" standalone="no"?>
<!DOCTYPE svg PUBLIC "-//W3C//DTD SVG 20010904//EN"
 "http://www.w3.org/TR/2001/REC-SVG-20010904/DTD/svg10.dtd">
<svg version="1.0" xmlns="http://www.w3.org/2000/svg"
 width="700.000000pt" height="700.000000pt" viewBox="0 0 700.000000 700.000000"
 preserveAspectRatio="xMidYMid meet">
<metadata>
Created by potrace 1.14, written by Peter Selinger 2001-2017
</metadata>
<g transform="translate(0.000000,700.000000) scale(0.100000,-0.100000)"
fill="#000000" stroke="none">
<path d="M1940 4834 c-200 -37 -379 -126 -516 -257 -116 -111 -138 -168 -91
-238 26 -40 89 -66 131 -55 15 4 69 46 120 94 70 67 112 98 176 129 209 104
464 119 695 42 116 -39 213 -100 298 -188 49 -50 78 -72 102 -77 96 -18 175
71 145 161 -17 52 -129 166 -225 230 -98 65 -197 109 -324 142 -125 33 -379
41 -511 17z"/>
<path d="M4632 4835 c-223 -41 -419 -140 -555 -283 -67 -71 -91 -121 -82 -168
12 -66 95 -118 157 -99 12 4 59 42 103 84 97 94 173 141 291 180 229 77 485
62 693 -41 64 -32 106 -62 177 -130 103 -99 132 -111 197 -85 67 29 94 103 61
173 -25 52 -180 193 -266 242 -99 56 -240 106 -357 126 -113 19 -316 20 -419
1z"/>
<path d="M1688 2981 c-32 -29 -33 -31 -32 -113 2 -214 103 -500 258 -733 434
-648 1277 -953 2078 -750 377 96 725 311 962 595 205 244 325 510 372 820 16
114 9 149 -41 188 l-28 22 -1768 0 -1769 0 -32 -29z"/>
</g>
</svg>
