<svg width="49" height="40" viewBox="0 0 49 40" fill="none" xmlns="http://www.w3.org/2000/svg">
<path d="M5.36638 21.1575H43.6862C44.4897 21.1575 45.143 21.843 45.073 22.6484C44.2331 32.2381 35.355 39.7841 24.5276 39.7841C13.7002 39.7841 4.82203 32.2381 3.98217 22.6484C3.90959 21.843 4.56281 21.1575 5.36638 21.1575Z" fill="#FF6633"/>
<path d="M31.4435 6.80832C31.8712 6.80832 32.2963 6.61544 32.5737 6.2453C33.9734 4.39463 36.633 3.24252 39.5128 3.24252C42.3927 3.24252 45.0523 4.39202 46.452 6.2453C46.9264 6.87349 47.8181 6.99339 48.4402 6.51639C49.0649 6.03938 49.1842 5.14272 48.7098 4.51714C46.7553 1.9314 43.3181 0.388306 39.5128 0.388306C35.7076 0.388306 32.2704 1.9314 30.3133 4.51714C29.8389 5.14532 29.9608 6.03938 30.5829 6.51639C30.8421 6.71449 31.1428 6.80832 31.4435 6.80832Z" fill="#414141"/>
<path d="M1.47472 6.80832C1.90242 6.80832 2.32754 6.61544 2.6049 6.2453C4.00466 4.39463 6.66421 3.24252 9.54409 3.24252C12.424 3.24252 15.0835 4.39202 16.4833 6.2453C16.9577 6.87349 17.8494 6.99339 18.4715 6.51639C19.0962 6.03938 19.2154 5.14272 18.7411 4.51714C16.7866 1.9314 13.3494 0.388306 9.54409 0.388306C5.73881 0.388306 2.30162 1.9314 0.344543 4.51714C-0.129822 5.14532 -0.00798798 6.03938 0.614128 6.51639C0.873344 6.71449 1.17403 6.80832 1.47472 6.80832Z" fill="#414141"/>
</svg>
